<?xml version="1.0" encoding="utf-8"?>
<!-- Generator: Adobe Illustrator 16.0.0, SVG Export Plug-In . SVG Version: 6.00 Build 0)  -->
<!DOCTYPE svg PUBLIC "-//W3C//DTD SVG 1.1//EN" "http://www.w3.org/Graphics/SVG/1.1/DTD/svg11.dtd">
<svg version="1.1" id="Layer_1" xmlns="http://www.w3.org/2000/svg" xmlns:xlink="http://www.w3.org/1999/xlink" x="0px" y="0px"
	 width="1024px" height="1098.727px" viewBox="0 0 1024 1098.727" enable-background="new 0 0 1024 1098.727" xml:space="preserve">
<rect x="-0.004" fill="#FFFFFF" width="1024.004" height="1024.002"/>
<g>
	<rect x="0.001" y="1024.002" fill="#231F20" width="1024.003" height="74.725"/>
	<g>
		<g>
			<path fill="#FFFFFF" d="M368.769,1052.223h3.184c2.504,0,4.569,0.658,6.19,1.978c1.633,1.306,2.448,3.185,2.448,5.635
				c0,2.522-0.807,4.446-2.431,5.779c-1.615,1.336-3.707,2.002-6.266,2.002h-3.125V1052.223z M370.69,1065.866h0.669
				c0.999,0,1.937-0.104,2.824-0.304c0.88-0.194,1.657-0.532,2.316-1.002c0.662-0.467,1.19-1.081,1.581-1.834
				c0.397-0.758,0.593-1.695,0.593-2.811c0-1.099-0.195-2.036-0.583-2.828c-0.386-0.78-0.928-1.391-1.624-1.831
				c-0.695-0.442-1.458-0.771-2.299-0.979c-0.836-0.2-1.768-0.311-2.809-0.311h-0.669V1065.866z"/>
			<path fill="#FFFFFF" d="M383.41,1063.145c0.026,0.852,0.302,1.598,0.818,2.229c0.532,0.624,1.216,0.935,2.061,0.935
				c0.67,0,1.217-0.146,1.647-0.456c0.428-0.308,0.836-0.775,1.216-1.401l1.55,0.881c-0.448,0.817-1.063,1.454-1.848,1.918
				c-0.78,0.46-1.645,0.699-2.584,0.699c-1.427,0-2.573-0.479-3.428-1.431c-0.847-0.971-1.267-2.164-1.267-3.595
				c0-1.505,0.399-2.754,1.204-3.724c0.791-0.951,1.938-1.427,3.453-1.427c1.47,0,2.578,0.476,3.33,1.427
				c0.761,0.953,1.141,2.17,1.141,3.662v0.283H383.41z M388.867,1061.755c-0.112-0.735-0.386-1.322-0.848-1.745
				c-0.459-0.426-1.053-0.652-1.788-0.652c-0.354,0-0.685,0.063-0.99,0.182c-0.31,0.111-0.578,0.285-0.823,0.495
				c-0.23,0.224-0.43,0.485-0.587,0.773c-0.158,0.291-0.262,0.614-0.315,0.947H388.867z"/>
			<path fill="#FFFFFF" d="M396.115,1060.252c-0.277-0.564-0.681-0.84-1.222-0.84c-0.257,0-0.492,0.086-0.698,0.271
				c-0.206,0.182-0.304,0.412-0.304,0.666c0,0.246,0.077,0.451,0.234,0.616c0.157,0.173,0.37,0.335,0.639,0.487
				c0.18,0.078,0.315,0.146,0.412,0.188c0.092,0.05,0.252,0.121,0.47,0.216c0.109,0.052,0.206,0.103,0.289,0.124
				c0.077,0.029,0.139,0.047,0.179,0.083c0.68,0.31,1.219,0.677,1.614,1.081c0.396,0.411,0.591,0.953,0.591,1.639
				c0,0.899-0.325,1.652-0.979,2.262c-0.639,0.605-1.405,0.903-2.31,0.903c-0.364,0-0.721-0.054-1.058-0.156
				c-0.344-0.101-0.662-0.245-0.952-0.431c-0.294-0.19-0.548-0.405-0.779-0.672c-0.223-0.267-0.398-0.564-0.514-0.895l1.572-0.707
				c0.443,0.813,1.025,1.22,1.73,1.22c0.29,0,0.554-0.075,0.801-0.229c0.243-0.156,0.422-0.356,0.54-0.6
				c0.115-0.237,0.139-0.491,0.071-0.771c-0.067-0.281-0.282-0.55-0.634-0.789l-1.799-0.961c-0.315-0.162-0.582-0.317-0.815-0.484
				c-0.23-0.17-0.424-0.346-0.571-0.526c-0.15-0.187-0.263-0.388-0.335-0.612c-0.073-0.223-0.114-0.484-0.114-0.79
				c0-0.774,0.27-1.42,0.82-1.957c0.54-0.547,1.21-0.816,2-0.816c1.196,0,2.068,0.561,2.614,1.675L396.115,1060.252z"/>
			<path fill="#FFFFFF" d="M402.714,1053.688c0,0.344-0.123,0.633-0.37,0.885c-0.245,0.242-0.544,0.353-0.899,0.353
				c-0.356,0-0.651-0.11-0.897-0.353c-0.244-0.252-0.368-0.541-0.368-0.885c0-0.354,0.124-0.652,0.368-0.914
				c0.246-0.254,0.542-0.369,0.897-0.369c0.354,0,0.654,0.115,0.899,0.369C402.591,1053.035,402.714,1053.334,402.714,1053.688z
				 M402.361,1067.616h-1.84v-9.561h1.84V1067.616z"/>
			<path fill="#FFFFFF" d="M414.255,1067.438c0,1.795-0.346,3.184-1.025,4.181c-0.676,0.984-1.895,1.472-3.634,1.472
				c-1.346,0-2.451-0.388-3.308-1.166c-0.844-0.775-1.285-1.828-1.308-3.161h1.833c0,0.854,0.269,1.513,0.79,1.989
				c0.521,0.474,1.213,0.705,2.076,0.705c1.046,0,1.764-0.309,2.153-0.919c0.385-0.616,0.58-1.482,0.58-2.59v-1.823h-0.038
				c-0.383,0.574-0.854,1.021-1.419,1.338c-0.566,0.325-1.177,0.485-1.828,0.485c-1.418,0-2.533-0.498-3.352-1.493
				c-0.814-0.998-1.224-2.225-1.224-3.678c0-1.381,0.414-2.551,1.244-3.516c0.836-0.99,1.914-1.489,3.248-1.489
				c1.406,0,2.515,0.644,3.332,1.923h0.038v-1.64h1.843V1067.438z M409.411,1066.308c0.966,0,1.722-0.327,2.266-1.002
				c0.561-0.674,0.837-1.503,0.837-2.469c0-0.948-0.277-1.765-0.837-2.433c-0.544-0.663-1.3-0.992-2.266-0.992
				c-0.912,0-1.646,0.331-2.207,1.018c-0.54,0.668-0.816,1.465-0.816,2.407c0,0.966,0.276,1.791,0.816,2.45
				C407.766,1065.969,408.499,1066.308,409.411,1066.308z"/>
			<path fill="#FFFFFF" d="M418.485,1059.342h0.032c0.276-0.499,0.674-0.893,1.19-1.159c0.513-0.274,1.083-0.41,1.693-0.41
				c0.626,0,1.155,0.099,1.593,0.283c0.438,0.192,0.786,0.466,1.054,0.82c0.264,0.354,0.455,0.79,0.566,1.293
				c0.122,0.517,0.174,1.095,0.174,1.751v5.696h-1.833v-5.47c0-0.945-0.14-1.627-0.412-2.065c-0.272-0.451-0.836-0.669-1.693-0.669
				c-0.318,0-0.581,0.026-0.801,0.086c-0.218,0.063-0.405,0.152-0.569,0.263c-0.165,0.119-0.299,0.259-0.411,0.398
				c-0.104,0.149-0.21,0.315-0.301,0.495c-0.042,0.091-0.084,0.214-0.115,0.365c-0.035,0.145-0.063,0.302-0.09,0.464
				c-0.027,0.153-0.053,0.307-0.065,0.465c-0.01,0.162-0.015,0.28-0.015,0.378v0.902v4.388h-1.842v-9.561h1.842V1059.342z"/>
			<path fill="#FFFFFF" d="M433.083,1049.889h1.838v9.762h0.039c0.847-1.25,1.955-1.878,3.332-1.878
				c1.336,0,2.415,0.499,3.249,1.489c0.829,0.965,1.246,2.135,1.246,3.516c0,1.453-0.417,2.68-1.227,3.678
				c-0.822,0.995-1.932,1.493-3.347,1.493c-0.652,0-1.265-0.16-1.833-0.485c-0.563-0.317-1.037-0.764-1.42-1.338h-0.039v1.491
				h-1.838V1049.889z M437.838,1066.308c0.973,0,1.726-0.327,2.274-1.002c0.558-0.674,0.831-1.503,0.831-2.469
				c0-0.948-0.273-1.765-0.831-2.433c-0.548-0.663-1.301-0.992-2.274-0.992c-0.913,0-1.646,0.331-2.204,1.018
				c-0.545,0.668-0.815,1.465-0.815,2.407c0,0.966,0.27,1.791,0.815,2.45C436.193,1065.969,436.926,1066.308,437.838,1066.308z"/>
			<path fill="#FFFFFF" d="M443.05,1058.056h2.145l3.225,6.072l3-6.072h2.068l-7.741,15.034h-2.085l3.759-7.109L443.05,1058.056z"/>
			<path fill="#FFFFFF" d="M462.759,1063.753l-1.757,3.863h-2.064l7.355-16.053l7.348,16.053h-2.059l-1.752-3.863H462.759z
				 M466.293,1055.774l-2.743,6.227h5.477L466.293,1055.774z"/>
			<path fill="#FFFFFF" d="M476.648,1067.616h-1.836v-17.728h1.836V1067.616z"/>
			<path fill="#FFFFFF" d="M481.183,1067.616h-1.839v-17.728h1.839V1067.616z"/>
			<path fill="#FFFFFF" d="M488.166,1060.309v1.529h-4.472v-1.529H488.166z"/>
			<path fill="#FFFFFF" d="M495.308,1051.75c-0.568-0.26-0.975-0.389-1.219-0.389c-0.399,0-0.681,0.12-0.855,0.375
				c-0.18,0.25-0.302,0.558-0.371,0.931c-0.04,0.27-0.061,0.485-0.076,0.644c-0.003,0.16-0.003,0.371-0.003,0.648v4.097h2.524v1.716
				h-2.524v7.845h-1.844v-7.845h-0.833v-1.716h0.833v-4.65c0-2.507,1.031-3.765,3.091-3.765c0.448,0,0.875,0.09,1.277,0.248V1051.75
				z"/>
			<path fill="#FFFFFF" d="M498.148,1059.607h0.062c0.233-0.567,0.567-1.019,1.024-1.344c0.453-0.325,0.982-0.491,1.593-0.491
				c0.509,0,1.005,0.155,1.519,0.472l-0.841,1.672c-0.301-0.266-0.678-0.386-1.124-0.386c-0.947,0-1.568,0.383-1.882,1.144
				c-0.136,0.354-0.232,0.705-0.276,1.051c-0.043,0.343-0.075,0.75-0.075,1.198v4.693h-1.831v-9.561h1.831V1059.607z"/>
			<path fill="#FFFFFF" d="M504.468,1063.145c0.021,0.852,0.298,1.598,0.819,2.229c0.527,0.624,1.21,0.935,2.058,0.935
				c0.659,0,1.218-0.146,1.644-0.456c0.429-0.308,0.835-0.775,1.211-1.401l1.551,0.881c-0.444,0.817-1.059,1.454-1.842,1.918
				c-0.783,0.46-1.648,0.699-2.586,0.699c-1.424,0-2.572-0.479-3.424-1.431c-0.847-0.971-1.27-2.164-1.27-3.595
				c0-1.505,0.402-2.754,1.202-3.724c0.79-0.951,1.938-1.427,3.451-1.427c1.471,0,2.583,0.476,3.337,1.427
				c0.755,0.953,1.132,2.17,1.132,3.662v0.283H504.468z M509.919,1061.755c-0.111-0.735-0.393-1.322-0.847-1.745
				c-0.456-0.426-1.05-0.652-1.79-0.652c-0.354,0-0.681,0.063-0.991,0.182c-0.302,0.111-0.579,0.285-0.811,0.495
				c-0.243,0.224-0.439,0.485-0.603,0.773c-0.152,0.291-0.257,0.614-0.307,0.947H509.919z"/>
			<path fill="#FFFFFF" d="M514.439,1063.145c0.022,0.852,0.294,1.598,0.811,2.229c0.526,0.624,1.22,0.935,2.062,0.935
				c0.669,0,1.22-0.146,1.644-0.456c0.432-0.308,0.832-0.775,1.218-1.401l1.548,0.881c-0.44,0.817-1.053,1.454-1.845,1.918
				c-0.787,0.46-1.645,0.699-2.585,0.699c-1.435,0-2.573-0.479-3.437-1.431c-0.838-0.971-1.259-2.164-1.259-3.595
				c0-1.505,0.397-2.754,1.208-3.724c0.784-0.951,1.939-1.427,3.45-1.427c1.463,0,2.577,0.476,3.322,1.427
				c0.77,0.953,1.145,2.17,1.145,3.662v0.283H514.439z M519.888,1061.755c-0.105-0.735-0.395-1.322-0.855-1.745
				c-0.452-0.426-1.045-0.652-1.778-0.652c-0.36,0-0.686,0.063-0.996,0.182c-0.305,0.111-0.573,0.285-0.812,0.495
				c-0.242,0.224-0.443,0.485-0.592,0.773c-0.159,0.291-0.267,0.614-0.321,0.947H519.888z"/>
			<path fill="#FFFFFF" d="M527.67,1060.309v1.529h-4.479v-1.529H527.67z"/>
			<path fill="#FFFFFF" d="M537.205,1066.125h-0.043c-0.379,0.574-0.854,1.021-1.418,1.338c-0.566,0.325-1.179,0.485-1.826,0.485
				c-1.419,0-2.534-0.498-3.348-1.493c-0.818-0.998-1.235-2.225-1.235-3.678c0-1.381,0.419-2.551,1.252-3.516
				c0.832-0.99,1.912-1.489,3.247-1.489c1.375,0,2.484,0.628,3.328,1.878h0.043v-9.762h1.834v17.728h-1.834V1066.125z
				 M534.202,1066.308c0.964,0,1.727-0.327,2.265-1.002c0.559-0.674,0.843-1.503,0.843-2.469c0-0.948-0.284-1.765-0.843-2.433
				c-0.538-0.663-1.301-0.992-2.265-0.992c-0.914,0-1.649,0.331-2.204,1.018c-0.545,0.668-0.818,1.465-0.818,2.407
				c0,0.966,0.273,1.791,0.818,2.45C532.553,1065.969,533.288,1066.308,534.202,1066.308z"/>
			<path fill="#FFFFFF" d="M542.045,1059.242c0.996-0.979,2.208-1.47,3.642-1.47c1.427,0,2.63,0.491,3.603,1.47
				c0.999,0.975,1.493,2.195,1.493,3.619c0,1.425-0.494,2.629-1.493,3.621c-0.973,0.974-2.176,1.466-3.603,1.466
				c-1.434,0-2.646-0.492-3.642-1.466c-0.98-0.992-1.473-2.196-1.473-3.621C540.572,1061.438,541.064,1060.217,542.045,1059.242z
				 M542.41,1062.861c0,0.88,0.33,1.664,0.968,2.339c0.623,0.666,1.398,0.987,2.309,0.987c0.891,0,1.667-0.321,2.302-0.987
				c0.643-0.675,0.959-1.459,0.959-2.339c0-0.9-0.316-1.69-0.959-2.351c-0.635-0.655-1.411-0.98-2.302-0.98
				c-0.91,0-1.686,0.325-2.309,0.98C542.74,1061.171,542.41,1061.961,542.41,1062.861z"/>
			<path fill="#FFFFFF" d="M555.733,1064.15l2.81-6.621l2.802,6.621l2.783-6.095h2.076l-4.859,9.893l-2.802-6.393l-2.81,6.393
				l-4.863-9.893h2.082L555.733,1064.15z"/>
			<path fill="#FFFFFF" d="M568.968,1059.342h0.039c0.271-0.499,0.664-0.893,1.182-1.159c0.521-0.274,1.085-0.41,1.694-0.41
				c0.629,0,1.165,0.099,1.597,0.283c0.435,0.192,0.784,0.466,1.054,0.82c0.263,0.354,0.453,0.79,0.563,1.293
				c0.119,0.517,0.176,1.095,0.176,1.751v5.696h-1.836v-5.47c0-0.945-0.126-1.627-0.406-2.065c-0.273-0.451-0.834-0.669-1.701-0.669
				c-0.307,0-0.572,0.026-0.794,0.086c-0.212,0.063-0.406,0.152-0.572,0.263c-0.161,0.119-0.298,0.259-0.406,0.398
				c-0.112,0.149-0.213,0.315-0.303,0.495c-0.04,0.091-0.082,0.214-0.114,0.365c-0.037,0.145-0.07,0.302-0.092,0.464
				c-0.029,0.153-0.043,0.307-0.067,0.465c-0.003,0.162-0.012,0.28-0.012,0.378v0.902v4.388h-1.839v-9.561h1.839V1059.342z"/>
			<path fill="#FFFFFF" d="M579.729,1067.616h-1.841v-17.728h1.841V1067.616z"/>
			<path fill="#FFFFFF" d="M582.954,1059.242c0.985-0.979,2.205-1.47,3.639-1.47c1.428,0,2.627,0.491,3.617,1.47
				c0.99,0.975,1.48,2.195,1.48,3.619c0,1.425-0.49,2.629-1.48,3.621c-0.99,0.974-2.189,1.466-3.617,1.466
				c-1.434,0-2.653-0.492-3.639-1.466c-0.985-0.992-1.473-2.196-1.473-3.621C581.481,1061.438,581.969,1060.217,582.954,1059.242z
				 M583.323,1062.861c0,0.88,0.321,1.664,0.957,2.339c0.627,0.666,1.398,0.987,2.313,0.987c0.893,0,1.665-0.321,2.311-0.987
				c0.634-0.675,0.953-1.459,0.953-2.339c0-0.9-0.319-1.69-0.953-2.351c-0.646-0.655-1.418-0.98-2.311-0.98
				c-0.914,0-1.686,0.325-2.313,0.98C583.645,1061.171,583.323,1061.961,583.323,1062.861z"/>
			<path fill="#FFFFFF" d="M602.339,1067.616h-1.842v-1.491h-0.037c-0.818,1.209-1.904,1.823-3.251,1.823
				c-1.402,0-2.52-0.498-3.35-1.493c-0.816-0.998-1.226-2.225-1.226-3.678c0-1.381,0.412-2.551,1.247-3.516
				c0.83-0.99,1.921-1.489,3.263-1.489c1.368,0,2.471,0.628,3.316,1.878h0.037v-1.595h1.842V1067.616z M597.496,1066.308
				c0.974,0,1.719-0.327,2.267-1.002c0.558-0.674,0.837-1.503,0.837-2.469c0-0.948-0.279-1.765-0.837-2.433
				c-0.548-0.663-1.293-0.992-2.267-0.992c-0.911,0-1.648,0.331-2.202,1.018c-0.547,0.668-0.825,1.465-0.825,2.407
				c0,0.966,0.278,1.791,0.825,2.45C595.848,1065.969,596.585,1066.308,597.496,1066.308z"/>
			<path fill="#FFFFFF" d="M611.851,1066.125h-0.034c-0.385,0.574-0.865,1.021-1.421,1.338c-0.566,0.325-1.175,0.485-1.828,0.485
				c-1.42,0-2.538-0.498-3.354-1.493c-0.814-0.998-1.226-2.225-1.226-3.678c0-1.381,0.423-2.551,1.25-3.516
				c0.829-0.99,1.91-1.489,3.251-1.489c1.373,0,2.475,0.628,3.328,1.878h0.034v-9.762h1.842v17.728h-1.842V1066.125z
				 M608.852,1066.308c0.964,0,1.717-0.327,2.262-1.002c0.559-0.674,0.839-1.503,0.839-2.469c0-0.948-0.28-1.765-0.839-2.433
				c-0.545-0.663-1.298-0.992-2.262-0.992c-0.914,0-1.65,0.331-2.205,1.018c-0.543,0.668-0.819,1.465-0.819,2.407
				c0,0.966,0.276,1.791,0.819,2.45C607.201,1065.969,607.938,1066.308,608.852,1066.308z"/>
			<path fill="#FFFFFF" d="M618.96,1066.758c0,0.328-0.112,0.604-0.337,0.836c-0.24,0.232-0.522,0.354-0.85,0.354
				c-0.328,0-0.605-0.122-0.829-0.354c-0.235-0.232-0.354-0.508-0.354-0.836c0-0.312,0.118-0.59,0.354-0.826
				c0.224-0.236,0.501-0.353,0.829-0.353c0.327,0,0.609,0.116,0.85,0.353C618.848,1066.168,618.96,1066.446,618.96,1066.758z"/>
			<path fill="#FFFFFF" d="M629.008,1060.772c-0.76-0.856-1.677-1.285-2.73-1.285c-0.89,0-1.651,0.337-2.271,1.001
				c-0.618,0.676-0.911,1.471-0.911,2.349c0,0.997,0.293,1.807,0.911,2.43c0.642,0.645,1.439,0.963,2.385,0.963
				c0.98,0,1.857-0.435,2.617-1.267v2.347c-0.79,0.42-1.666,0.639-2.633,0.639c-1.417,0-2.631-0.492-3.641-1.457
				c-0.991-0.947-1.482-2.138-1.482-3.568c0-1.47,0.491-2.706,1.482-3.681c0.999-0.979,2.246-1.47,3.741-1.47
				c0.987,0,1.826,0.213,2.532,0.628V1060.772z"/>
			<path fill="#FFFFFF" d="M631.603,1059.242c0.996-0.979,2.209-1.47,3.636-1.47c1.428,0,2.641,0.491,3.611,1.47
				c1.002,0.975,1.492,2.195,1.492,3.619c0,1.425-0.49,2.629-1.492,3.621c-0.971,0.974-2.184,1.466-3.611,1.466
				c-1.427,0-2.64-0.492-3.636-1.466c-0.98-0.992-1.473-2.196-1.473-3.621C630.13,1061.438,630.622,1060.217,631.603,1059.242z
				 M631.971,1062.861c0,0.88,0.323,1.664,0.961,2.339c0.617,0.666,1.398,0.987,2.307,0.987c0.896,0,1.672-0.321,2.307-0.987
				c0.643-0.675,0.96-1.459,0.96-2.339c0-0.9-0.317-1.69-0.96-2.351c-0.635-0.655-1.41-0.98-2.307-0.98
				c-0.908,0-1.689,0.325-2.307,0.98C632.294,1061.171,631.971,1061.961,631.971,1062.861z"/>
			<path fill="#FFFFFF" d="M643.797,1059.262h0.041c0.271-0.437,0.625-0.79,1.092-1.069c0.456-0.284,0.936-0.42,1.435-0.42
				c1.191,0,2.106,0.563,2.764,1.698c0.297-0.518,0.713-0.934,1.238-1.244c0.519-0.305,1.094-0.454,1.697-0.454
				c2.117,0,3.169,1.375,3.169,4.122v5.722h-1.834v-5.414c0-0.241-0.008-0.486-0.038-0.719c-0.013-0.247-0.059-0.477-0.106-0.694
				c-0.06-0.232-0.136-0.439-0.246-0.63c-0.111-0.182-0.264-0.36-0.448-0.509c-0.245-0.163-0.563-0.238-0.938-0.238
				c-0.388,0-0.707,0.075-0.979,0.238c-0.267,0.148-0.462,0.338-0.608,0.555c-0.146,0.228-0.259,0.516-0.334,0.854
				c-0.08,0.338-0.135,0.648-0.155,0.922c-0.024,0.268-0.031,0.583-0.031,0.942v4.693h-1.842v-5.064c0-0.327,0-0.593-0.014-0.813
				c-0.02-0.227-0.059-0.494-0.127-0.82c-0.065-0.354-0.151-0.609-0.263-0.78c-0.111-0.188-0.284-0.353-0.506-0.508
				c-0.242-0.146-0.512-0.218-0.839-0.218c-0.942,0-1.549,0.401-1.824,1.217c-0.121,0.391-0.199,0.74-0.241,1.087
				c-0.044,0.334-0.062,0.735-0.062,1.207v4.693h-1.841v-9.561h1.841V1059.262z"/>
		</g>
		<g>
			<g>
				<path fill="#FFFFFF" d="M325.925,1061.977c8.674,0,17.343,0,26.016,0c0.786,0,0.786-1.214,0-1.214c-8.673,0-17.341,0-26.016,0
					C325.141,1060.763,325.141,1061.977,325.925,1061.977L325.925,1061.977z"/>
			</g>
			<g>
				<path fill="#FFFFFF" d="M672.06,1061.977c8.673,0,17.345,0,26.011,0c0.794,0,0.794-1.214,0-1.214c-8.666,0-17.338,0-26.011,0
					C671.273,1060.763,671.273,1061.977,672.06,1061.977L672.06,1061.977z"/>
			</g>
		</g>
	</g>
</g>
<g>
	<g>
		<path fill="#00AEEF" d="M321.072,562.465c6.486,5.236,14.74,8.37,23.724,8.37c20.882,0,37.809-16.927,37.809-37.809
			c0-7.171-1.996-13.874-5.463-19.588c0,0-5.32-7.466-12.053-13.524c-6.734-6.061-12.313-13.467-13.755-18.661
			c-1.442-5.194,4.424-8.657,9.331-7.213c4.905,1.442,18.285-8.009,18.285-8.009c3.896-3.751,8.095-1.21,8.095-1.21
			c22.794,14.148,37.973,39.405,37.973,68.207c0,44.304-35.916,80.222-80.221,80.222c-22.664,0-43.132-9.399-57.72-24.51
			c0,0-6.438-6.775-8.939-11.49c-2.502-4.712-1.828-8.273,0.769-10.484c2.598-2.212,30.204-30.106,30.204-30.106
			s-3.752,4.137-0.481,10.195C311.897,552.912,321.072,562.465,321.072,562.465z"/>
		<path fill="#130749" d="M371.05,457.309l-18.415,18.689c0,0,4.662-4.94,13.126,0.446c8.464,5.386,14.717,11.542,18.949,12.601
			c4.232,1.058,6.638-2.784,6.638-2.784l2.02-9.817c0,0-6.073-10.646-6.637-11.334c-0.564-0.689-8.272-5.788-8.561-5.884
			C377.881,459.13,371.05,457.309,371.05,457.309z"/>
		<path fill="#39219B" d="M391.348,486.261c-2.321-18.656-18.232-33.094-37.516-33.094c-20.881,0-37.808,16.927-37.808,37.808
			c0,8.984,3.133,17.239,8.368,23.725c0,0,6.405,8.418,12.464,13.469c6.06,5.051,10.827,11.977,10.968,16.16
			s-4.403,8.152-10.536,5.914c-6.132-2.234-20.504-3.911-20.632-7.863c-0.299-9.296-7.744-3.767-7.55-5.723l-11.351,11.352
			c-15.112-14.591-24.146-34.37-24.146-57.034c0-44.305,35.916-80.221,80.221-80.221c28.801,0,54.058,15.179,68.206,37.973
			c0,0,2.542,4.2-1.21,8.095L391.348,486.261L391.348,486.261z"/>
		<path fill="#130749" d="M345.692,549.092c0,0-4.901,4.269-13.192-1.293c-8.291-5.563-14.061-14.413-23.392-11.142
			c0,0-6.541,5.676,3.559,17.024c10.099,11.352,15.36,13.238,15.36,13.238L345.692,549.092z"/>
	</g>
	<g>
		<path fill="#130749" d="M458.112,550.889v-50.26c0-1.632,0.571-3.019,1.713-4.161s2.529-1.713,4.161-1.713h5.711v45.691h27.415
			v10.443H458.112z"/>
		<path fill="#130749" d="M508.386,546.973c-2.284-1.959-3.916-4.596-4.896-7.914c-0.979-3.318-1.469-6.771-1.469-10.361
			c0-2.938,0.408-5.875,1.225-8.813c0.815-2.938,2.094-5.385,3.834-7.344c2.829-3.264,6.473-5.193,10.934-5.793
			c4.46-0.598,8.485-0.244,12.075,1.061c4.134,1.633,7.181,4.461,9.139,8.486c1.85,3.59,2.774,7.777,2.774,12.564
			c0,3.482-0.382,6.473-1.143,8.975c-0.762,2.504-1.741,4.625-2.938,6.365c-2.61,3.59-5.93,5.82-9.954,6.689
			c-3.59,0.98-7.207,1.061-10.852,0.246C513.472,550.318,510.562,548.932,508.386,546.973z M516.219,518.252
			c-2.284,2.504-3.318,6.229-3.101,11.178c0.218,4.951,1.143,8.404,2.774,10.363c0.652,0.871,1.795,1.605,3.427,2.203
			s3.29,0.652,4.977,0.162c1.687-0.488,3.183-1.713,4.488-3.672c1.305-1.957,2.012-5.111,2.121-9.463
			c0-3.918-0.626-6.854-1.877-8.813s-2.692-3.209-4.324-3.754c-1.632-0.543-3.264-0.57-4.896-0.08
			C518.177,516.865,516.979,517.492,516.219,518.252z"/>
		<path fill="#130749" d="M576.61,548.277v-2.773c-1.958,3.047-4.596,4.951-7.914,5.711c-3.318,0.762-6.608,0.49-9.872-0.814
			c-3.264-1.307-6.065-3.727-8.404-7.262s-3.509-8.188-3.509-13.953c0-6.744,1.551-12.211,4.651-16.4
			c3.101-4.188,8.077-6.281,14.931-6.281c5.222,0,10.063,1.414,14.523,4.242c4.46,2.828,6.69,8.051,6.69,15.666v23.008
			c0,7.615-2.23,12.811-6.69,15.584c-4.461,2.775-9.302,4.162-14.523,4.162c-10.009,0-16.21-4.678-18.603-14.033h11.912
			c0.87,1.521,2.203,2.691,3.998,3.508s3.59,1.033,5.385,0.652c1.796-0.381,3.428-1.441,4.896-3.182
			C575.55,554.371,576.393,551.76,576.61,548.277z M558.008,529.512c0,7.508,2.176,11.668,6.527,12.484s7.561-0.189,9.628-3.02
			c0.979-1.195,1.686-3.072,2.121-5.629c0.435-2.557,0.462-5.086,0.082-7.588c-0.382-2.502-1.279-4.732-2.692-6.691
			c-1.415-1.959-3.482-2.938-6.201-2.938c-3.699,0-6.201,1.361-7.507,4.08C558.661,522.932,558.008,526.031,558.008,529.512z"/>
		<path fill="#130749" d="M594.739,494.754h5.874c1.523,0,2.828,0.544,3.917,1.632c1.087,1.088,1.632,2.394,1.632,3.917v3.426
			h-11.423V494.754z M594.739,507.482h5.874c1.523,0,2.828,0.545,3.917,1.633c1.087,1.088,1.632,2.393,1.632,3.916v37.857h-11.423
			V507.482z"/>
		<path fill="#130749" d="M609.766,536.529h11.097c0.108,2.176,0.925,3.809,2.448,4.895c1.632,1.088,3.807,1.633,6.527,1.633
			c1.958,0,3.644-0.381,5.059-1.143c1.305-0.762,1.958-1.795,1.958-3.1c0-1.959-2.285-3.428-6.854-4.406
			c-1.959-0.326-3.427-0.652-4.406-0.98c-5.767-1.412-9.628-3.1-11.586-5.059c-2.176-1.957-3.264-4.568-3.264-7.832
			c0-4.133,1.577-7.561,4.732-10.281c3.264-2.502,7.506-3.752,12.729-3.752c5.656,0,10.171,1.25,13.544,3.752
			c3.154,2.721,4.841,6.256,5.059,10.607h-7.017c-2.067,0-3.646-0.924-4.732-2.773c-0.436-0.436-0.871-0.871-1.306-1.307
			c-1.306-0.979-3.101-1.469-5.385-1.469c-2.177,0-3.809,0.328-4.896,0.98c-0.979,0.652-1.469,1.631-1.469,2.938
			c0,1.74,2.828,3.209,8.485,4.404c0.652,0.219,1.224,0.383,1.714,0.49c0.489,0.109,0.951,0.164,1.387,0.164
			c5.548,1.414,9.409,3.045,11.586,4.895c2.066,1.959,3.101,4.57,3.101,7.834c0,4.787-1.741,8.484-5.222,11.096
			c-3.264,2.393-8.159,3.59-14.687,3.59c-6.201,0-10.825-1.25-13.871-3.754c-3.155-2.502-4.732-6.145-4.732-10.932V536.529z"/>
		<path fill="#130749" d="M673.422,550.889c-3.59,0.219-7.479,0.164-11.668-0.162s-6.282-2.992-6.282-7.996v-47.976h5.874
			c1.414,0,2.665,0.544,3.754,1.632c1.087,1.088,1.632,2.394,1.632,3.917v7.344h6.69v2.283c0,1.633-0.545,2.965-1.632,3.998
			c-1.089,1.035-2.394,1.551-3.917,1.551h-1.142v24.15c0,1.85,1.087,2.775,3.264,2.775h3.427V550.889z"/>
		<path fill="#130749" d="M679.474,494.754h5.874c1.523,0,2.828,0.544,3.917,1.632c1.087,1.088,1.632,2.394,1.632,3.917v3.426
			h-11.423V494.754z M679.474,507.482h5.874c1.523,0,2.828,0.545,3.917,1.633c1.087,1.088,1.632,2.393,1.632,3.916v37.857h-11.423
			V507.482z"/>
		<path fill="#130749" d="M725.668,537.508h8.159c-1.197,4.57-3.481,8.051-6.854,10.443c-3.372,2.504-7.615,3.754-12.729,3.754
			c-6.2,0-11.042-2.012-14.522-6.037c-3.482-3.918-5.223-9.52-5.223-16.809c0-6.961,1.687-12.402,5.059-16.318
			c3.481-4.025,8.323-6.037,14.523-6.037c6.527,0,11.586,1.957,15.177,5.875c1.958,2.393,3.371,5.166,4.242,8.322h-11.423
			c-0.544-1.088-1.088-1.904-1.632-2.449c-1.414-1.521-3.427-2.283-6.038-2.283c-2.394,0-4.352,0.762-5.874,2.283
			c-1.958,2.178-2.938,5.768-2.938,10.771s0.979,8.539,2.938,10.605c1.414,1.742,3.535,2.611,6.364,2.611
			c1.849,0,3.427-0.381,4.732-1.143c0.326-0.107,0.625-0.299,0.897-0.57c0.271-0.271,0.571-0.572,0.897-0.898
			c0.217-0.326,0.652-0.76,1.306-1.305C723.384,537.781,724.363,537.508,725.668,537.508z"/>
		<path fill="#130749" d="M738.737,536.529h11.097c0.108,2.176,0.925,3.809,2.448,4.895c1.632,1.088,3.807,1.633,6.527,1.633
			c1.958,0,3.644-0.381,5.059-1.143c1.305-0.762,1.958-1.795,1.958-3.1c0-1.959-2.285-3.428-6.854-4.406
			c-1.959-0.326-3.427-0.652-4.406-0.98c-5.767-1.412-9.628-3.1-11.586-5.059c-2.176-1.957-3.264-4.568-3.264-7.832
			c0-4.133,1.577-7.561,4.732-10.281c3.264-2.502,7.506-3.752,12.729-3.752c5.656,0,10.171,1.25,13.544,3.752
			c3.154,2.721,4.841,6.256,5.059,10.607h-7.017c-2.067,0-3.646-0.924-4.732-2.773c-0.436-0.436-0.871-0.871-1.306-1.307
			c-1.306-0.979-3.101-1.469-5.385-1.469c-2.177,0-3.809,0.328-4.896,0.98c-0.979,0.652-1.469,1.631-1.469,2.938
			c0,1.74,2.828,3.209,8.485,4.404c0.652,0.219,1.224,0.383,1.714,0.49c0.489,0.109,0.951,0.164,1.387,0.164
			c5.548,1.414,9.409,3.045,11.586,4.895c2.066,1.959,3.101,4.57,3.101,7.834c0,4.787-1.741,8.484-5.222,11.096
			c-3.264,2.393-8.159,3.59-14.687,3.59c-6.201,0-10.825-1.25-13.871-3.754c-3.155-2.502-4.732-6.145-4.732-10.932V536.529z"/>
	</g>
</g>
</svg>
